<svg width="30" height="29" viewBox="0 0 30 29" fill="none" xmlns="http://www.w3.org/2000/svg">
<path d="M29.0018 1.00018L18.0018 7.00018C17.9103 7.05827 17.97 7.90525 18.0018 8.00018C18.019 8.04836 17.9581 7.99592 18.0018 8.00018C18.0018 8.00018 20.0141 8.14725 22.0018 9.00018C22.3662 8.6559 26.0018 5.00018 26.0018 5.00018L23.0018 9.00018C23.0018 9.00018 26.0953 11.4643 27.0018 13.0002C27.0309 13.0455 26.9593 13.0086 27.0018 13.0002C27.0773 12.986 26.9794 13.0866 27.0018 13.0002L29.0018 1.00018C29.0522 0.807492 29.1621 0.896752 29.0018 1.00018V1.00018Z" fill="white"/>
<path d="M22.9965 9.00015V9.00015C22.9965 9.00015 19.3846 14.4119 18.9965 15.0001C18.7386 13.5272 17.6306 10.1962 13.9965 9.00015C9.87452 7.6441 2.41209 10.4342 0.996451 19.0001C0.347782 22.9237 2.10883 26.971 6.99645 28.0001C6.99645 28.0001 12.5537 29.3867 15.9965 24.0001C17.7072 21.7123 19.9965 18.0001 19.9965 18.0001C20.681 16.8945 23.9965 12.0001 23.9965 12.0001C24.0177 10.5175 23.0283 9.05995 22.9965 9.00015V9.00015ZM13.9965 23.0001C11.1253 26.5662 7.2765 26.6733 5.99645 25.0001C4.84001 23.4884 4.72784 18.4813 7.99645 14.0001C7.99645 14.0001 10.7424 10.3757 13.9965 11.0001C15.8986 11.384 17.8902 12.587 17.9965 17.0001C17.9965 17.0001 16.9407 19.3451 13.9965 23.0001V23.0001Z" fill="white"/>
<path d="M26.0022 26C25.9532 25.9527 26.0606 24.9614 26.0022 25C25.609 25.2648 24.9951 26.1446 24.0022 26C21.1335 25.5835 20.3817 22.3033 20.0022 20C18.1209 23.5458 19.6649 25.4962 20.0022 26C20.549 26.816 21.0283 27.6178 22.0022 28C22.6415 28.2506 24.3671 28.7098 26.0022 26C26.0022 26 26.0756 26.073 26.0022 26V26Z" fill="white"/>
</svg>
